<svg width="187" height="44" viewBox="0 0 187 44" fill="none" xmlns="http://www.w3.org/2000/svg">
<path fill-rule="evenodd" clip-rule="evenodd" d="M0.450346 2.1561C0 3.02306 0 4.16204 0 6.44V37.56C0 39.838 0 40.9769 0.450346 41.8439C0.829848 42.5745 1.42553 43.1702 2.1561 43.5497C3.02306 44 4.16204 44 6.44 44H40H42H180.56C182.838 44 183.977 44 184.844 43.5497C185.574 43.1702 186.17 42.5745 186.55 41.8439C187 40.9769 187 39.838 187 37.56V6.44C187 4.16204 187 3.02306 186.55 2.1561C186.17 1.42553 185.574 0.829848 184.844 0.450346C183.977 0 182.838 0 180.56 0H52H42H40H6.44C4.16204 0 3.02306 0 2.1561 0.450346C1.42553 0.829848 0.829848 1.42553 0.450346 2.1561ZM42.4545 42L51.5455 2H180.56C181.733 2 182.49 2.00161 183.066 2.04943C183.618 2.09527 183.822 2.17301 183.922 2.22517C184.287 2.41492 184.585 2.71276 184.775 3.07805C184.827 3.17847 184.905 3.3825 184.951 3.93444C184.998 4.51033 185 5.26745 185 6.44V37.56C185 38.7326 184.998 39.4897 184.951 40.0656C184.905 40.6175 184.827 40.8215 184.775 40.9219C184.585 41.2872 184.287 41.5851 183.922 41.7748C183.822 41.827 183.618 41.9047 183.066 41.9506C182.49 41.9984 181.733 42 180.56 42H42.4545Z" fill="url(#paint0_linear)"/>
<path d="M73.3311 29H69.8682L64.2783 19.2793H64.1992C64.3105 20.9961 64.3662 22.2207 64.3662 22.9531V29H61.9316V16.1504H65.3682L70.9492 25.7744H71.0107C70.9229 24.1045 70.8789 22.9238 70.8789 22.2324V16.1504H73.3311V29ZM79.2988 21.8545H80.1777C81.0391 21.8545 81.6748 21.7109 82.085 21.4238C82.4951 21.1367 82.7002 20.6855 82.7002 20.0703C82.7002 19.4609 82.4893 19.0273 82.0674 18.7695C81.6514 18.5117 81.0039 18.3828 80.125 18.3828H79.2988V21.8545ZM79.2988 24.0693V29H76.5742V16.1504H80.3184C82.0645 16.1504 83.3564 16.4697 84.1943 17.1084C85.0322 17.7412 85.4512 18.7051 85.4512 20C85.4512 20.7559 85.2432 21.4297 84.8271 22.0215C84.4111 22.6074 83.8223 23.0674 83.0605 23.4014C84.9941 26.29 86.2539 28.1562 86.8398 29H83.8164L80.749 24.0693H79.2988ZM94.2754 29H91.5596V21.5645L91.5859 20.3428L91.6299 19.0068C91.1787 19.458 90.8652 19.7539 90.6895 19.8945L89.2129 21.0811L87.9033 19.4463L92.043 16.1504H94.2754V29ZM108.874 18.2334C107.849 18.2334 107.055 18.6201 106.492 19.3936C105.93 20.1611 105.648 21.2334 105.648 22.6104C105.648 25.4756 106.724 26.9082 108.874 26.9082C109.776 26.9082 110.869 26.6826 112.152 26.2314V28.5166C111.098 28.9561 109.92 29.1758 108.619 29.1758C106.75 29.1758 105.32 28.6104 104.33 27.4795C103.34 26.3428 102.845 24.7139 102.845 22.5928C102.845 21.2568 103.088 20.0879 103.574 19.0859C104.061 18.0781 104.758 17.3076 105.666 16.7744C106.58 16.2354 107.649 15.9658 108.874 15.9658C110.122 15.9658 111.376 16.2676 112.636 16.8711L111.757 19.0859C111.276 18.8574 110.793 18.6582 110.307 18.4883C109.82 18.3184 109.343 18.2334 108.874 18.2334ZM120.924 29L120.405 27.6641H120.335C119.884 28.2324 119.418 28.6279 118.938 28.8506C118.463 29.0674 117.842 29.1758 117.074 29.1758C116.131 29.1758 115.387 28.9062 114.842 28.3672C114.303 27.8281 114.033 27.0605 114.033 26.0645C114.033 25.0215 114.396 24.2539 115.123 23.7617C115.855 23.2637 116.957 22.9883 118.428 22.9355L120.133 22.8828V22.4521C120.133 21.4561 119.623 20.958 118.604 20.958C117.818 20.958 116.896 21.1953 115.835 21.6699L114.947 19.8594C116.078 19.2676 117.332 18.9717 118.709 18.9717C120.027 18.9717 121.038 19.2588 121.741 19.833C122.444 20.4072 122.796 21.2803 122.796 22.4521V29H120.924ZM120.133 24.4473L119.096 24.4824C118.316 24.5059 117.736 24.6465 117.355 24.9043C116.975 25.1621 116.784 25.5547 116.784 26.082C116.784 26.8379 117.218 27.2158 118.085 27.2158C118.706 27.2158 119.201 27.0371 119.57 26.6797C119.945 26.3223 120.133 25.8477 120.133 25.2559V24.4473ZM129.704 27.04C130.173 27.04 130.735 26.9375 131.392 26.7324V28.7275C130.724 29.0264 129.903 29.1758 128.931 29.1758C127.858 29.1758 127.076 28.9062 126.584 28.3672C126.098 27.8223 125.854 27.0078 125.854 25.9238V21.1865H124.571V20.0527L126.048 19.1562L126.821 17.082H128.535V19.1738H131.286V21.1865H128.535V25.9238C128.535 26.3047 128.641 26.5859 128.852 26.7676C129.068 26.9492 129.353 27.04 129.704 27.04ZM139.627 29L139.108 27.6641H139.038C138.587 28.2324 138.121 28.6279 137.641 28.8506C137.166 29.0674 136.545 29.1758 135.777 29.1758C134.834 29.1758 134.09 28.9062 133.545 28.3672C133.006 27.8281 132.736 27.0605 132.736 26.0645C132.736 25.0215 133.1 24.2539 133.826 23.7617C134.559 23.2637 135.66 22.9883 137.131 22.9355L138.836 22.8828V22.4521C138.836 21.4561 138.326 20.958 137.307 20.958C136.521 20.958 135.599 21.1953 134.538 21.6699L133.65 19.8594C134.781 19.2676 136.035 18.9717 137.412 18.9717C138.73 18.9717 139.741 19.2588 140.444 19.833C141.147 20.4072 141.499 21.2803 141.499 22.4521V29H139.627ZM138.836 24.4473L137.799 24.4824C137.02 24.5059 136.439 24.6465 136.059 24.9043C135.678 25.1621 135.487 25.5547 135.487 26.082C135.487 26.8379 135.921 27.2158 136.788 27.2158C137.409 27.2158 137.904 27.0371 138.273 26.6797C138.648 26.3223 138.836 25.8477 138.836 25.2559V24.4473ZM146.948 29H144.268V15.3242H146.948V29ZM151.905 24.0693C151.905 25.042 152.063 25.7773 152.38 26.2754C152.702 26.7734 153.224 27.0225 153.944 27.0225C154.659 27.0225 155.172 26.7764 155.482 26.2842C155.799 25.7861 155.957 25.0479 155.957 24.0693C155.957 23.0967 155.799 22.3672 155.482 21.8809C155.166 21.3945 154.647 21.1514 153.927 21.1514C153.212 21.1514 152.696 21.3945 152.38 21.8809C152.063 22.3613 151.905 23.0908 151.905 24.0693ZM158.699 24.0693C158.699 25.6689 158.277 26.9199 157.434 27.8223C156.59 28.7246 155.415 29.1758 153.909 29.1758C152.966 29.1758 152.134 28.9707 151.413 28.5605C150.692 28.1445 150.139 27.5498 149.752 26.7764C149.365 26.0029 149.172 25.1006 149.172 24.0693C149.172 22.4639 149.591 21.2158 150.429 20.3252C151.267 19.4346 152.444 18.9893 153.962 18.9893C154.905 18.9893 155.737 19.1943 156.458 19.6045C157.179 20.0146 157.732 20.6035 158.119 21.3711C158.506 22.1387 158.699 23.0381 158.699 24.0693ZM169.466 19.1738V20.5361L167.928 20.9316C168.209 21.3711 168.35 21.8633 168.35 22.4082C168.35 23.4629 167.98 24.2861 167.242 24.8779C166.51 25.4639 165.49 25.7568 164.184 25.7568L163.7 25.7305L163.305 25.6865C163.029 25.8975 162.892 26.1318 162.892 26.3896C162.892 26.7764 163.384 26.9697 164.368 26.9697H166.038C167.116 26.9697 167.937 27.2012 168.499 27.6641C169.067 28.127 169.352 28.8066 169.352 29.7031C169.352 30.8516 168.871 31.7422 167.91 32.375C166.955 33.0078 165.581 33.3242 163.788 33.3242C162.417 33.3242 161.368 33.084 160.642 32.6035C159.921 32.1289 159.561 31.4609 159.561 30.5996C159.561 30.0078 159.745 29.5127 160.114 29.1143C160.483 28.7158 161.025 28.4316 161.74 28.2617C161.465 28.1445 161.225 27.9541 161.02 27.6904C160.814 27.4209 160.712 27.1367 160.712 26.8379C160.712 26.4629 160.82 26.1523 161.037 25.9062C161.254 25.6543 161.567 25.4082 161.978 25.168C161.462 24.9453 161.052 24.5879 160.747 24.0957C160.448 23.6035 160.299 23.0234 160.299 22.3555C160.299 21.2832 160.647 20.4541 161.345 19.8682C162.042 19.2822 163.038 18.9893 164.333 18.9893C164.608 18.9893 164.934 19.0156 165.309 19.0684C165.689 19.1152 165.933 19.1504 166.038 19.1738H169.466ZM161.881 30.3887C161.881 30.7578 162.057 31.0479 162.408 31.2588C162.766 31.4697 163.264 31.5752 163.902 31.5752C164.863 31.5752 165.616 31.4434 166.161 31.1797C166.706 30.916 166.979 30.5557 166.979 30.0986C166.979 29.7295 166.817 29.4746 166.495 29.334C166.173 29.1934 165.675 29.123 165.001 29.123H163.612C163.12 29.123 162.707 29.2373 162.373 29.4658C162.045 29.7002 161.881 30.0078 161.881 30.3887ZM162.856 22.3906C162.856 22.9238 162.977 23.3457 163.217 23.6562C163.463 23.9668 163.835 24.1221 164.333 24.1221C164.837 24.1221 165.206 23.9668 165.44 23.6562C165.675 23.3457 165.792 22.9238 165.792 22.3906C165.792 21.207 165.306 20.6152 164.333 20.6152C163.349 20.6152 162.856 21.207 162.856 22.3906Z" fill="#007E8A"/>
<rect x="10" y="8" width="28" height="28" rx="14" stroke="white" stroke-width="2"/>
<rect x="17" y="15" width="5" height="5" rx="1" stroke="white" stroke-width="2"/>
<rect x="17" y="24" width="5" height="5" rx="1" stroke="white" stroke-width="2"/>
<rect x="26" y="15" width="5" height="5" rx="1" stroke="white" stroke-width="2"/>
<rect x="26" y="24" width="5" height="5" rx="1" stroke="white" stroke-width="2"/>
<defs>
<linearGradient id="paint0_linear" x1="-4.63291e-07" y1="-5" x2="40" y2="38" gradientUnits="userSpaceOnUse">
<stop stop-color="#13547A"/>
<stop offset="1" stop-color="#007E8A"/>
</linearGradient>
</defs>
</svg>
